<svg width="512" height="512" viewBox="0 0 512 512" fill="none" xmlns="http://www.w3.org/2000/svg">
<circle cx="256" cy="223.5" r="199.11" stroke="black" stroke-width="3.13559"/>
<path d="M359.229 336.639L256 88.8889L152.771 336.639" stroke="black" stroke-width="3.13559"/>
<line x1="319.787" y1="240.549" x2="110.61" y2="361.121" stroke="black" stroke-width="3.13559"/>
<path d="M68.9896 459.631L61.4833 480.297H58.4153L67.0585 457.622H69.0363L68.9896 459.631ZM75.2812 480.297L67.7593 459.631L67.7126 457.622H69.6904L78.3647 480.297H75.2812ZM74.8919 471.903V474.363H62.1529V471.903H74.8919ZM87.4614 457.622H94.9677C96.6704 457.622 98.1083 457.881 99.2815 458.401C100.465 458.92 101.363 459.688 101.976 460.705C102.599 461.712 102.91 462.953 102.91 464.427C102.91 465.466 102.697 466.416 102.272 467.277C101.856 468.129 101.254 468.855 100.465 469.458C99.6864 470.049 98.752 470.491 97.6619 470.781L96.821 471.108H89.7662L89.7351 468.663H95.0612C96.1409 468.663 97.039 468.476 97.7554 468.103C98.4717 467.719 99.0116 467.205 99.375 466.561C99.7384 465.917 99.92 465.206 99.92 464.427C99.92 463.555 99.7487 462.792 99.4061 462.138C99.0635 461.484 98.5236 460.981 97.7865 460.628C97.0597 460.264 96.1202 460.082 94.9677 460.082H90.467V480.297H87.4614V457.622ZM100.714 480.297L95.2013 470.018L98.3316 470.003L103.922 480.11V480.297H100.714ZM114.125 457.622H117.037L124.465 476.107L131.878 457.622H134.806L125.587 480.297H123.313L114.125 457.622ZM113.175 457.622H115.744L116.165 471.451V480.297H113.175V457.622ZM133.171 457.622H135.74V480.297H132.75V471.451L133.171 457.622ZM150.303 457.622V480.297H147.298V457.622H150.303ZM170.504 459.631L162.998 480.297H159.93L168.573 457.622H170.551L170.504 459.631ZM176.795 480.297L169.274 459.631L169.227 457.622H171.205L179.879 480.297H176.795ZM176.406 471.903V474.363H163.667V471.903H176.406ZM206.418 457.622V480.297H203.397L191.981 462.808V480.297H188.976V457.622H191.981L203.443 475.157V457.622H206.418ZM225.715 457.622V480.297H222.756V457.622H225.715ZM233.003 457.622V460.082H215.483V457.622H233.003ZM259.449 468.243V469.676C259.449 471.378 259.236 472.904 258.81 474.254C258.384 475.604 257.772 476.751 256.972 477.696C256.173 478.641 255.213 479.362 254.091 479.861C252.98 480.359 251.735 480.608 250.354 480.608C249.014 480.608 247.784 480.359 246.663 479.861C245.552 479.362 244.586 478.641 243.766 477.696C242.956 476.751 242.328 475.604 241.882 474.254C241.435 472.904 241.212 471.378 241.212 469.676V468.243C241.212 466.54 241.43 465.019 241.866 463.68C242.313 462.33 242.941 461.183 243.751 460.238C244.56 459.283 245.521 458.556 246.632 458.058C247.753 457.56 248.983 457.31 250.323 457.31C251.703 457.31 252.949 457.56 254.06 458.058C255.181 458.556 256.142 459.283 256.941 460.238C257.751 461.183 258.369 462.33 258.794 463.68C259.231 465.019 259.449 466.54 259.449 468.243ZM256.474 469.676V468.212C256.474 466.862 256.334 465.668 256.054 464.63C255.784 463.592 255.384 462.72 254.854 462.014C254.325 461.308 253.676 460.773 252.908 460.409C252.15 460.046 251.288 459.864 250.323 459.864C249.388 459.864 248.542 460.046 247.784 460.409C247.037 460.773 246.393 461.308 245.853 462.014C245.324 462.72 244.913 463.592 244.623 464.63C244.332 465.668 244.187 466.862 244.187 468.212V469.676C244.187 471.036 244.332 472.24 244.623 473.289C244.913 474.327 245.329 475.204 245.869 475.921C246.419 476.626 247.068 477.161 247.815 477.525C248.573 477.888 249.419 478.07 250.354 478.07C251.33 478.07 252.197 477.888 252.954 477.525C253.712 477.161 254.351 476.626 254.87 475.921C255.399 475.204 255.799 474.327 256.069 473.289C256.339 472.24 256.474 471.036 256.474 469.676ZM296.065 474.566C296.065 474.036 295.982 473.569 295.816 473.164C295.66 472.749 295.38 472.375 294.975 472.043C294.58 471.711 294.03 471.394 293.324 471.093C292.629 470.792 291.746 470.485 290.677 470.174C289.555 469.842 288.543 469.473 287.64 469.068C286.737 468.653 285.963 468.181 285.32 467.651C284.676 467.122 284.183 466.514 283.84 465.829C283.497 465.144 283.326 464.36 283.326 463.477C283.326 462.595 283.508 461.78 283.871 461.032C284.235 460.285 284.754 459.636 285.429 459.086C286.114 458.525 286.929 458.089 287.874 457.778C288.818 457.466 289.872 457.31 291.035 457.31C292.738 457.31 294.181 457.637 295.364 458.292C296.558 458.935 297.467 459.781 298.09 460.83C298.713 461.868 299.024 462.979 299.024 464.163H296.034C296.034 463.311 295.852 462.559 295.489 461.905C295.126 461.24 294.575 460.721 293.838 460.347C293.101 459.963 292.167 459.771 291.035 459.771C289.966 459.771 289.083 459.932 288.387 460.254C287.692 460.576 287.173 461.012 286.83 461.562C286.498 462.112 286.332 462.74 286.332 463.446C286.332 463.924 286.43 464.36 286.628 464.754C286.835 465.139 287.152 465.497 287.578 465.829C288.014 466.161 288.564 466.468 289.228 466.748C289.903 467.028 290.708 467.298 291.642 467.558C292.93 467.921 294.041 468.326 294.975 468.772C295.909 469.219 296.678 469.722 297.28 470.283C297.892 470.833 298.344 471.461 298.635 472.167C298.936 472.863 299.086 473.652 299.086 474.534C299.086 475.458 298.899 476.294 298.526 477.042C298.152 477.789 297.617 478.428 296.922 478.957C296.226 479.487 295.39 479.897 294.414 480.188C293.449 480.468 292.369 480.608 291.175 480.608C290.126 480.608 289.093 480.463 288.076 480.172C287.069 479.881 286.15 479.445 285.32 478.864C284.499 478.282 283.84 477.566 283.342 476.715C282.854 475.853 282.61 474.856 282.61 473.725H285.6C285.6 474.503 285.75 475.173 286.051 475.734C286.353 476.284 286.763 476.741 287.282 477.104C287.811 477.467 288.408 477.737 289.073 477.914C289.748 478.08 290.448 478.163 291.175 478.163C292.224 478.163 293.111 478.018 293.838 477.727C294.565 477.436 295.115 477.021 295.489 476.481C295.873 475.941 296.065 475.303 296.065 474.566ZM321.95 457.622H324.94V472.962C324.94 474.664 324.561 476.081 323.803 477.213C323.045 478.345 322.038 479.196 320.782 479.767C319.536 480.328 318.181 480.608 316.717 480.608C315.181 480.608 313.789 480.328 312.544 479.767C311.308 479.196 310.327 478.345 309.6 477.213C308.884 476.081 308.526 474.664 308.526 472.962V457.622H311.5V472.962C311.5 474.145 311.718 475.121 312.154 475.889C312.59 476.658 313.198 477.229 313.976 477.602C314.765 477.976 315.679 478.163 316.717 478.163C317.766 478.163 318.679 477.976 319.458 477.602C320.247 477.229 320.86 476.658 321.296 475.889C321.732 475.121 321.95 474.145 321.95 472.962V457.622ZM336.668 457.622H339.581L347.009 476.107L354.422 457.622H357.35L348.13 480.297H345.857L336.668 457.622ZM335.718 457.622H338.288L338.709 471.451V480.297H335.718V457.622ZM355.715 457.622H358.284V480.297H355.294V471.451L355.715 457.622ZM372.847 457.622V480.297H369.841V457.622H372.847ZM392.284 457.622V480.297H389.326V457.622H392.284ZM399.573 457.622V460.082H382.053V457.622H399.573ZM408.996 457.622H416.503C418.205 457.622 419.643 457.881 420.817 458.401C422 458.92 422.898 459.688 423.511 460.705C424.134 461.712 424.445 462.953 424.445 464.427C424.445 465.466 424.232 466.416 423.807 467.277C423.391 468.129 422.789 468.855 422 469.458C421.221 470.049 420.287 470.491 419.197 470.781L418.356 471.108H411.301L411.27 468.663H416.596C417.676 468.663 418.574 468.476 419.29 468.103C420.007 467.719 420.547 467.205 420.91 466.561C421.273 465.917 421.455 465.206 421.455 464.427C421.455 463.555 421.284 462.792 420.941 462.138C420.599 461.484 420.059 460.981 419.322 460.628C418.595 460.264 417.655 460.082 416.503 460.082H412.002V480.297H408.996V457.622ZM422.249 480.297L416.736 470.018L419.867 470.003L425.457 480.11V480.297H422.249ZM452.167 468.243V469.676C452.167 471.378 451.955 472.904 451.529 474.254C451.103 475.604 450.491 476.751 449.691 477.696C448.892 478.641 447.932 479.362 446.81 479.861C445.699 480.359 444.454 480.608 443.073 480.608C441.733 480.608 440.503 480.359 439.382 479.861C438.271 479.362 437.305 478.641 436.485 477.696C435.675 476.751 435.047 475.604 434.601 474.254C434.154 472.904 433.931 471.378 433.931 469.676V468.243C433.931 466.54 434.149 465.019 434.585 463.68C435.032 462.33 435.66 461.183 436.47 460.238C437.279 459.283 438.24 458.556 439.351 458.058C440.472 457.56 441.702 457.31 443.042 457.31C444.422 457.31 445.668 457.56 446.779 458.058C447.9 458.556 448.861 459.283 449.66 460.238C450.47 461.183 451.088 462.33 451.513 463.68C451.949 465.019 452.167 466.54 452.167 468.243ZM449.193 469.676V468.212C449.193 466.862 449.053 465.668 448.773 464.63C448.503 463.592 448.103 462.72 447.573 462.014C447.044 461.308 446.395 460.773 445.627 460.409C444.869 460.046 444.007 459.864 443.042 459.864C442.107 459.864 441.261 460.046 440.503 460.409C439.756 460.773 439.112 461.308 438.572 462.014C438.043 462.72 437.632 463.592 437.342 464.63C437.051 465.668 436.906 466.862 436.906 468.212V469.676C436.906 471.036 437.051 472.24 437.342 473.289C437.632 474.327 438.048 475.204 438.588 475.921C439.138 476.626 439.787 477.161 440.534 477.525C441.292 477.888 442.138 478.07 443.073 478.07C444.049 478.07 444.916 477.888 445.673 477.525C446.431 477.161 447.07 476.626 447.589 475.921C448.118 475.204 448.518 474.327 448.788 473.289C449.058 472.24 449.193 471.036 449.193 469.676Z" fill="black"/>
</svg>
